<svg width="118" height="48" viewBox="0 0 118 48" fill="none" xmlns="http://www.w3.org/2000/svg">
<g clip-path="url(#clip0_2772_945)">
<path d="M35.6867 20.6688H24.9677L34.2504 15.3372L32.4096 12.1638L23.1257 17.4955L28.4841 8.26132L25.2949 6.42965L19.9354 15.6615V5.00049H16.2514V15.6627L10.8919 6.42965L7.70149 8.26132L13.0598 17.4932L3.77831 12.1638L1.93631 15.3372L11.219 20.6688H0.5V24.3333H11.2178L1.93631 29.665L3.77714 32.8383L13.061 27.5067L7.70149 36.7408L10.8907 38.5725L16.2514 29.3395V40.0005H19.9354V29.1108L25.3933 38.5142L28.3844 36.7968L22.9252 27.3912L32.4072 32.8372L34.2492 29.6638L24.9677 24.3322H35.6855V20.6688H35.6867V20.6688ZM18.0934 27.4822C17.4357 27.4822 16.7845 27.3534 16.1769 27.1031C15.5693 26.8527 15.0172 26.4858 14.5522 26.0231C14.0871 25.5605 13.7182 25.0112 13.4664 24.4067C13.2147 23.8022 13.0851 23.1543 13.085 22.4999C13.0849 21.8455 13.2144 21.1976 13.466 20.593C13.7176 19.9884 14.0864 19.4391 14.5513 18.9763C15.0163 18.5136 15.5683 18.1465 16.1758 17.896C16.7834 17.6455 17.4346 17.5166 18.0922 17.5165C19.4203 17.5163 20.6941 18.0412 21.6334 18.9755C22.5726 19.9099 23.1004 21.1772 23.1005 22.4987C23.1007 23.8203 22.5732 25.0877 21.6342 26.0223C20.6952 26.9569 19.4215 27.482 18.0934 27.4822V27.4822Z" fill="#625DF5"/>
<path d="M45.1831 35.3021V9.69849H49.9059V35.3021H45.1831V35.3021ZM90.4803 17.9025H94.9897V20.0258C95.9488 18.3283 98.1871 17.4078 100.104 17.4078C102.484 17.4078 104.401 18.4345 105.289 20.307C106.673 18.1837 108.52 17.4078 110.829 17.4078C114.06 17.4078 117.149 19.3527 117.149 24.0205V35.3021H112.569V24.976C112.569 23.1012 111.645 21.686 109.478 21.686C107.453 21.686 106.246 23.2435 106.246 25.1183V35.3033H101.56V24.976C101.56 23.1012 100.601 21.686 98.4697 21.686C96.4096 21.686 95.202 23.2085 95.202 25.1183V35.3033H90.4803V17.9025V17.9025ZM60.5792 35.8061C55.2584 35.8061 51.4056 31.878 51.4056 26.6023C51.4056 21.4107 55.2467 17.3903 60.5792 17.3903C65.9375 17.3903 69.7528 21.448 69.7528 26.6023C69.7528 31.8407 65.8977 35.8061 60.5792 35.8061ZM60.5792 21.6487C59.2594 21.6505 57.9943 22.1732 57.0614 23.1021C56.1285 24.0311 55.604 25.2903 55.6031 26.6035C55.604 27.9167 56.1285 29.1759 57.0614 30.1048C57.9943 31.0337 59.2594 31.5565 60.5792 31.5583C61.8988 31.5562 63.1636 31.0333 64.0963 30.1044C65.0289 29.1755 65.5532 27.9165 65.5541 26.6035C65.5532 25.2905 65.0289 24.0314 64.0963 23.1026C63.1636 22.1737 61.8988 21.6508 60.5792 21.6487V21.6487ZM79.8399 35.8061C74.5191 35.8061 70.6662 31.878 70.6662 26.6023C70.6662 21.4107 74.5073 17.3903 79.8399 17.3903C85.1982 17.3903 89.0135 21.448 89.0135 26.6023C89.0135 31.8407 85.156 35.8061 79.8399 35.8061ZM79.8399 21.5892C78.5049 21.5913 77.2254 22.1202 76.2818 23.0597C75.3382 23.9993 74.8076 25.2729 74.8063 26.6011C74.8076 27.9294 75.3382 29.203 76.2818 30.1426C77.2254 31.0821 78.5049 31.611 79.8399 31.6132C81.1748 31.611 82.4544 31.0821 83.398 30.1426C84.3416 29.203 84.8722 27.9294 84.8734 26.6011C84.8722 25.2729 84.3416 23.9993 83.398 23.0597C82.4544 22.1202 81.1748 21.5913 79.8399 21.5892V21.5892Z" fill="#212121"/>
</g>
<defs>
<clipPath id="clip0_2772_945">
<rect width="117" height="48" fill="white" transform="translate(0.5)"/>
</clipPath>
</defs>
</svg>
