<svg width="129" height="48" viewBox="0 0 129 48" fill="none" xmlns="http://www.w3.org/2000/svg">
<g clip-path="url(#clip0_2771_936)">
<path fill-rule="evenodd" clip-rule="evenodd" d="M100.092 31.6174C103.391 31.6174 106.074 28.9874 106.074 25.7548C106.074 22.5221 103.391 19.8921 100.092 19.8921C96.7933 19.8921 94.1095 22.5221 94.1095 25.7548C94.1095 28.9874 96.7933 31.6174 100.092 31.6174ZM106.074 11.1851H106.236H108.908V34.4147H106.074V32.0953C104.438 33.581 102.329 34.3948 100.092 34.3948C95.2307 34.3948 91.2757 30.5189 91.2757 25.7548C91.2757 20.9905 95.2307 17.1147 100.092 17.1147C102.329 17.1147 104.438 17.9284 106.074 19.4142V11.1851ZM41.3164 31.5151C44.615 31.5151 47.2986 28.8851 47.2986 25.6524C47.2986 22.4198 44.615 19.7899 41.3164 19.7899C38.0177 19.7899 35.3341 22.4198 35.3341 25.6524C35.3341 28.8851 38.0177 31.5151 41.3164 31.5151ZM35.3341 19.3122C36.9697 17.8264 39.0793 17.0125 41.3164 17.0125C46.1776 17.0125 50.1326 20.8884 50.1326 25.6524C50.1326 30.4166 46.1776 34.2925 41.3164 34.2925C39.0793 34.2925 36.9697 33.4788 35.3341 31.9928V40.2221H32.5V16.9925H35.3341V19.3122ZM55.5402 24.3035C56.178 21.678 58.5547 19.7929 61.2656 19.7929C63.9412 19.7929 66.1824 21.6378 66.7797 24.3035H55.5402ZM61.2656 16.9925C56.4772 16.9925 52.5817 20.9004 52.5817 25.7036C52.5817 30.5069 56.4772 34.4147 61.2656 34.4147C63.9471 34.4147 66.4082 33.4076 68.0188 31.6518L68.8556 30.7391L68.9634 30.6213L68.8461 30.5127L67.0268 28.8341L66.9095 28.7256L66.801 28.8434L65.9643 29.7562C64.897 30.9197 63.1406 31.6145 61.2656 31.6145C58.5547 31.6145 56.1782 29.7293 55.5402 27.1037H69.7243V25.7036C69.7243 20.8188 66.0087 16.9925 61.2656 16.9925ZM125.666 25.7036C125.666 28.9628 122.982 31.6144 119.683 31.6144C116.385 31.6144 113.701 28.9628 113.701 25.7036C113.701 22.4443 116.385 19.7928 119.683 19.7928C122.982 19.7928 125.666 22.4443 125.666 25.7036ZM119.683 16.9925C114.822 16.9925 110.867 20.9003 110.867 25.7036C110.867 30.5069 114.822 34.4147 119.683 34.4147C124.545 34.4147 128.5 30.5069 128.5 25.7036C128.5 20.9003 124.545 16.9925 119.683 16.9925ZM80.2547 16.9925C78.2855 16.9925 76.4093 17.7424 74.9326 19.1121V16.9925H72.1735V34.4147H74.9326V25.5238C74.9326 22.3518 77.3201 19.771 80.2547 19.771C83.1898 19.771 85.5779 22.3518 85.5779 25.5238V34.4147H88.3364V25.5238C88.3364 20.8197 84.711 16.9925 80.2547 16.9925Z" fill="#1A2022"/>
<path fill-rule="evenodd" clip-rule="evenodd" d="M0.5 27.7777H13.8333V40.8148L27.1667 27.7777V14.7407H13.8333L0.5 27.7777Z" fill="#FF4876"/>
</g>
<defs>
<clipPath id="clip0_2771_936">
<rect width="128" height="48" fill="white" transform="translate(0.5)"/>
</clipPath>
</defs>
</svg>
