<svg width="122" height="48" viewBox="0 0 122 48" fill="none" xmlns="http://www.w3.org/2000/svg">
<g clip-path="url(#clip0_2769_933)">
<path d="M38.4251 32.4265L39.8932 28.995C41.5006 30.1854 43.5973 30.8155 45.6945 30.8155C47.2323 30.8155 48.2107 30.2205 48.2107 29.3103C48.1756 26.7891 38.9494 28.7499 38.8792 22.4113C38.8441 19.1898 41.7102 16.7037 45.7646 16.7037C48.1756 16.7037 50.5875 17.2992 52.2997 18.665L50.9279 22.1697C49.3525 21.1567 47.4067 20.4504 45.5546 20.4504C44.2965 20.4504 43.4575 21.0454 43.4575 21.8163C43.4925 24.3024 52.7895 22.9366 52.8942 28.995C52.8942 32.2866 50.0978 34.5978 46.1135 34.5978C43.1783 34.5978 40.4871 33.8976 38.4246 32.4265H38.4251ZM96.8831 27.7524C96.5125 28.4109 95.9735 28.9589 95.3212 29.3403C94.669 29.7217 93.927 29.9227 93.1715 29.9228C90.8167 29.9228 88.9079 28.0101 88.9079 25.6508C88.9079 23.2914 90.8167 21.3787 93.1715 21.3787C93.927 21.3788 94.669 21.5798 95.3212 21.9612C95.9735 22.3426 96.5125 22.8906 96.8831 23.5491L100.965 21.2835C99.4359 18.5513 96.5197 16.7037 93.1715 16.7037C88.2398 16.7037 84.2419 20.7091 84.2419 25.6508C84.2419 30.5919 88.2398 34.5978 93.1715 34.5978C96.5197 34.5978 99.4359 32.7502 100.965 30.018L96.8831 27.7524ZM55.5427 34.2474H60.6453V9.25586H55.5432L55.5427 34.2474ZM103.542 9.25586V34.2474H108.644V26.76L114.69 34.2474H121.213L113.524 25.3525L120.653 17.0526H114.411L108.644 23.9531V9.25586H103.542ZM76.3655 17.0536V19.0851C75.527 17.6841 73.4649 16.7037 71.2981 16.7037C66.8245 16.7037 63.2948 20.661 63.2948 25.6332C63.2948 30.6055 66.8245 34.5978 71.2981 34.5978C73.4649 34.5978 75.527 33.6174 76.3655 32.2164V34.2474H81.4681V17.0536H76.3655ZM76.3655 27.787C75.6317 29.0125 74.0939 29.9223 72.3817 29.9223C70.0264 29.9223 68.1177 28.0101 68.1177 25.6508C68.1177 23.2914 70.0264 21.3787 72.3817 21.3787C74.0939 21.3787 75.6317 22.3241 76.3655 23.5842V27.787Z" fill="black"/>
<path d="M11.4783 8.70361C9.82472 8.70361 8.48442 10.0469 8.48442 11.7035C8.48402 12.0971 8.56115 12.4868 8.71139 12.8506C8.86163 13.2143 9.08205 13.5449 9.36006 13.8235C9.63806 14.1021 9.96822 14.3231 10.3317 14.4741C10.6951 14.6251 11.0847 14.703 11.4783 14.7034H14.4727V11.7035C14.4733 10.9086 14.1582 10.1461 13.5967 9.58348C13.0352 9.0209 12.2732 8.70441 11.4783 8.70361V8.70361ZM11.4783 16.7033H3.49412C1.84055 16.7033 0.500244 18.0466 0.500244 19.7037C0.500244 21.3603 1.84055 22.7036 3.49412 22.7036H11.4788C13.1319 22.7036 14.4727 21.3603 14.4727 19.7037C14.4727 18.0466 13.1319 16.7033 11.4783 16.7033" fill="#36C5F0"/>
<path d="M30.4411 19.7037C30.4411 18.0466 29.1003 16.7033 27.4467 16.7033C25.7932 16.7033 24.4529 18.0466 24.4529 19.7037V22.7036H27.4467C28.2416 22.7028 29.0036 22.3863 29.5652 21.8237C30.1267 21.2612 30.4418 20.4986 30.4411 19.7037V19.7037ZM22.4569 19.7037V11.7035C22.4576 10.9086 22.1425 10.1461 21.581 9.58348C21.0194 9.0209 20.2574 8.70441 19.4626 8.70361C17.809 8.70361 16.4687 10.0469 16.4687 11.7035V19.7032C16.4687 21.3608 17.809 22.7041 19.4626 22.7041C20.2574 22.7033 21.0194 22.3868 21.581 21.8242C22.1425 21.2617 22.4576 20.4991 22.4569 19.7042" fill="#2EB67D"/>
<path d="M19.4626 38.7036C20.2575 38.7028 21.0195 38.3863 21.581 37.8237C22.1426 37.2612 22.4577 36.4986 22.457 35.7037C22.4577 34.9088 22.1426 34.1463 21.581 33.5837C21.0195 33.0211 20.2575 32.7046 19.4626 32.7038H16.4688V35.7037C16.4688 37.3603 17.8091 38.7036 19.4626 38.7036ZM19.4626 30.7039H27.4473C29.1004 30.7039 30.4412 29.3606 30.4412 27.7035C30.4418 26.9086 30.1268 26.1461 29.5652 25.5835C29.0037 25.0209 28.2417 24.7044 27.4468 24.7036H19.4626C17.8091 24.7036 16.4688 26.0469 16.4688 27.7035C16.4684 28.0971 16.5455 28.4868 16.6957 28.8506C16.846 29.2143 17.0664 29.5449 17.3444 29.8235C17.6224 30.1021 17.9526 30.3231 18.316 30.4741C18.6794 30.6251 19.0691 30.703 19.4626 30.7034" fill="#ECB22E"/>
<path d="M0.500002 27.7035C0.499606 28.0971 0.576732 28.4868 0.726974 28.8506C0.877217 29.2143 1.09763 29.5449 1.37564 29.8235C1.65365 30.1021 1.9838 30.3231 2.34725 30.4741C2.7107 30.6251 3.10032 30.703 3.49388 30.7034C4.28875 30.7026 5.05075 30.3861 5.61229 29.8235C6.17383 29.261 6.48892 28.4984 6.48826 27.7035V24.7036H3.49388C1.8403 24.7036 0.500002 26.0469 0.500002 27.7035V27.7035ZM8.48417 27.7035V35.7032C8.48417 37.3603 9.82448 38.7036 11.4781 38.7036C12.2729 38.7028 13.0349 38.3863 13.5965 37.8237C14.158 37.2612 14.4731 36.4986 14.4724 35.7037V27.7035C14.4728 27.3099 14.3957 26.9201 14.2454 26.5563C14.0951 26.1925 13.8747 25.8619 13.5966 25.5833C13.3186 25.3048 12.9883 25.0837 12.6248 24.9327C12.2613 24.7818 11.8716 24.7039 11.4781 24.7036C9.82448 24.7036 8.48417 26.0469 8.48417 27.7035Z" fill="#E01E5A"/>
</g>
<defs>
<clipPath id="clip0_2769_933">
<rect width="121" height="48" fill="white" transform="translate(0.5)"/>
</clipPath>
</defs>
</svg>
