<svg width="114" height="48" viewBox="0 0 114 48" fill="none" xmlns="http://www.w3.org/2000/svg">
<g clip-path="url(#clip0_2784_464)">
<path d="M29.8774 33.987V12.0316H33.2886V20.6873C34.3628 19.0874 35.974 18.2871 38.1219 18.2865C39.9541 18.2865 41.3704 18.8288 42.3709 19.9133C43.3714 20.9979 43.8718 22.509 43.8719 24.4466V33.987H40.4606V24.9205C40.4606 22.4146 39.3444 21.1615 37.1119 21.1611C35.9954 21.1611 35.0793 21.4981 34.3636 22.172C33.648 22.846 33.2898 23.7937 33.2892 25.0152V33.9867L29.8774 33.987Z" fill="#323232"/>
<path d="M59.9933 32.092C58.4769 33.6084 56.5711 34.3665 54.2755 34.3665C51.9801 34.3665 50.0689 33.6084 48.5418 32.092C47.0148 30.5756 46.2514 28.6483 46.2515 26.3101C46.2516 23.972 47.015 22.0503 48.5418 20.5452C50.0686 19.0397 51.9798 18.2868 54.2755 18.2865C56.5713 18.2861 58.4772 19.0391 59.9933 20.5452C61.5098 22.0512 62.2681 23.9729 62.268 26.3101C62.2678 28.6473 61.5096 30.5746 59.9933 32.092ZM51.0376 30.1648C51.8478 31.1124 52.9272 31.5864 54.2755 31.5864C55.624 31.5864 56.7033 31.1124 57.5135 30.1648C58.324 29.2171 58.7293 27.9322 58.7297 26.3101C58.7297 24.7097 58.3191 23.4356 57.4978 22.4877C56.6765 21.5399 55.6024 21.066 54.2755 21.0661C52.9275 21.0661 51.8481 21.5347 51.0376 22.4718C50.2269 23.409 49.8215 24.6882 49.8213 26.3094C49.8213 27.9322 50.2267 29.2173 51.0376 30.1648Z" fill="#323232"/>
<path d="M70.164 34.366C67.0258 34.366 65.4566 32.6811 65.4566 29.3114V21.5403H63.0879V18.6657H65.552L66.3418 14.1491H68.9002V18.6657H74.9971V21.5403H68.9005V29.2168C68.9005 30.628 69.4164 31.3336 70.4484 31.3335C71.4168 31.3335 72.2908 30.4488 73.0703 28.6797L75.7241 30.0382C74.418 32.9237 72.5646 34.3663 70.164 34.366Z" fill="#323232"/>
<path d="M76.8208 41C75.3044 41 74.0513 40.5788 73.0615 39.7364L74.3252 37.0512C74.9361 37.7669 75.5995 38.125 76.3154 38.1258C77.263 38.1258 77.7368 37.5151 77.7368 36.2936V18.6656H81.148V36.3559C81.148 37.9986 80.7426 39.1833 79.9317 39.9097C79.1209 40.6363 78.0839 40.9997 76.8208 41ZM79.4427 16.075C78.8819 16.0941 78.3365 15.8896 77.9264 15.5065C77.7291 15.3206 77.5737 15.0949 77.4702 14.8444C77.3668 14.5939 77.3177 14.3243 77.3263 14.0534C77.3187 13.7803 77.3683 13.5086 77.4716 13.2556C77.5749 13.0027 77.7298 12.7741 77.9264 12.5844C78.3388 12.2084 78.8767 12 79.4349 12C79.9929 12 80.5309 12.2084 80.9433 12.5844C81.144 12.7717 81.3028 12.9995 81.409 13.2528C81.5151 13.506 81.5665 13.7789 81.5594 14.0534C81.5643 14.3229 81.512 14.5904 81.4058 14.8382C81.2996 15.086 81.142 15.3084 80.9433 15.4907C80.744 15.6821 80.5088 15.8322 80.2513 15.9325C79.9938 16.0328 79.7191 16.0812 79.4427 16.075Z" fill="#323232"/>
<path d="M89.621 34.3661C87.8726 34.3661 86.4562 33.9291 85.372 33.0552C84.2876 32.1812 83.7455 31.0074 83.7452 29.5336C83.7452 28.1859 84.3085 27.0431 85.4353 26.1054C86.562 25.1677 87.9782 24.6991 89.6841 24.6997C91.4322 24.6997 92.9064 25.2578 94.1068 26.3741V24.51C94.1068 23.4152 93.8277 22.5676 93.2695 21.967C92.7113 21.3664 91.9163 21.0662 90.8847 21.0666C88.7997 21.0666 87.5045 22.1301 86.9989 24.2571L83.8714 23.5938C84.2921 21.9512 85.124 20.656 86.3672 19.7082C87.6103 18.7605 89.1582 18.2866 91.0108 18.2866C93.0328 18.2866 94.6282 18.8184 95.7969 19.8821C96.9656 20.9457 97.5499 22.4988 97.5502 24.5414V33.9871H94.2331V32.0598C93.1166 33.5975 91.5792 34.3664 89.621 34.3661ZM90.252 31.8389C91.7685 31.8389 93.0534 31.0808 94.1067 29.5646V29.0902C93.0532 27.8266 91.7684 27.1948 90.252 27.1949C89.3676 27.1949 88.6513 27.411 88.1029 27.8431C87.8438 28.034 87.634 28.2841 87.4912 28.5727C87.3482 28.8611 87.2764 29.1796 87.2815 29.5014C87.2732 29.8267 87.3419 30.1493 87.4819 30.443C87.6219 30.7367 87.8294 30.9932 88.0872 31.1915C88.6254 31.6232 89.3466 31.839 90.252 31.8389Z" fill="#323232"/>
<path d="M100.87 33.987V18.6656H104.187V21.3192C105.029 19.3817 106.482 18.4129 108.546 18.4128C109.767 18.4128 110.778 18.813 111.579 19.6132C112.38 20.4135 112.78 21.4876 112.779 22.8354C112.77 23.6421 112.632 24.4422 112.368 25.2047L109.241 24.8888C109.305 24.4701 109.347 24.0484 109.367 23.6253C109.367 22.0458 108.714 21.256 107.409 21.2559C106.524 21.2559 105.781 21.7245 105.181 22.6616C104.581 23.5988 104.281 24.8361 104.281 26.3737V33.987H100.87Z" fill="#323232"/>
<path d="M8.57188 21.0097C11.1142 19.5973 14.5962 17.6625 14.5962 12.0315H10.38C10.38 15.1821 8.84614 16.0342 6.52431 17.3241C3.98197 18.737 0.5 20.671 0.5 26.3026H4.71623C4.71623 23.1518 6.25006 22.2997 8.57188 21.0097Z" fill="#FF3C00"/>
<path d="M15.8692 19.7157C15.8692 22.8664 14.3354 23.7185 12.0136 25.0083C9.4719 26.4207 5.98926 28.3552 5.98926 33.9867H10.2053C10.2053 30.8359 11.7391 29.9838 14.061 28.6939C16.6033 27.2815 20.0851 25.3472 20.0851 19.7157H15.8692Z" fill="#FF3C00"/>
</g>
<defs>
<clipPath id="clip0_2784_464">
<rect width="113" height="48" fill="white" transform="translate(0.5)"/>
</clipPath>
</defs>
</svg>
