<svg width="36" height="36" viewBox="0 0 36 36" fill="none" xmlns="http://www.w3.org/2000/svg">
<path d="M17.3334 9.99996V28C17.3334 29.44 16.7467 30.76 15.8133 31.72L15.76 31.7733C15.64 31.8933 15.5067 32.0133 15.3867 32.1066C14.9867 32.4533 14.5333 32.7199 14.0667 32.9066C13.92 32.9733 13.7734 33.0266 13.6267 33.08C13.1067 33.2533 12.5467 33.3333 12 33.3333C11.64 33.3333 11.28 33.2933 10.9334 33.2266C10.76 33.1866 10.5867 33.1466 10.4134 33.0933C10.2 33.0266 10 32.96 9.80003 32.8666C9.80003 32.8533 9.80002 32.8533 9.78668 32.8666C9.41335 32.68 9.05336 32.4666 8.72003 32.2133L8.70669 32.2C8.53335 32.0666 8.37337 31.9333 8.2267 31.7733C8.08004 31.6133 7.93335 31.4533 7.78668 31.28C7.53335 30.9466 7.32003 30.5866 7.13336 30.2133C7.1467 30.2 7.1467 30.2 7.13336 30.2C7.13336 30.2 7.13335 30.1866 7.12002 30.1733C7.04002 29.9866 6.97334 29.7866 6.90668 29.5866C6.85334 29.4133 6.81334 29.24 6.77334 29.0666C6.70667 28.72 6.66669 28.36 6.66669 28V9.99996C6.66669 7.99996 8.00002 6.66663 10 6.66663H14C16 6.66663 17.3334 7.99996 17.3334 9.99996Z" fill="#DFD8FC"/>
<path d="M33.3333 26V30C33.3333 32 32 33.3333 30 33.3333H12C12.5467 33.3333 13.1067 33.2533 13.6267 33.08C13.7733 33.0266 13.92 32.9733 14.0667 32.9066C14.5333 32.72 14.9867 32.4533 15.3867 32.1066C15.5067 32.0133 15.64 31.8933 15.76 31.7733L15.8133 31.72L24.88 22.6666H30C32 22.6666 33.3333 24 33.3333 26Z" fill="#DFD8FC"/>
<path d="M28.4933 19.0533L24.88 22.6666L15.8133 31.72C16.7466 30.76 17.3333 29.44 17.3333 28V15.12L20.9466 11.5067C22.36 10.0933 24.2533 10.0933 25.6666 11.5067L28.4933 14.3333C29.9066 15.7466 29.9066 17.64 28.4933 19.0533Z" fill="#DFD8FC"/>
<path d="M14.3334 6.99996V25C14.3334 26.44 13.7467 27.76 12.8133 28.72L12.76 28.7733C12.64 28.8933 12.5067 29.0133 12.3867 29.1066C11.9867 29.4533 11.5333 29.72 11.0667 29.9066C10.92 29.9733 10.7734 30.0266 10.6267 30.08C10.1067 30.2533 9.54669 30.3333 9.00002 30.3333C8.64002 30.3333 8.28004 30.2933 7.93337 30.2266C7.76004 30.1866 7.58668 30.1466 7.41335 30.0933C7.20002 30.0266 7.00003 29.96 6.80003 29.8666C6.80003 29.8533 6.80002 29.8533 6.78668 29.8666C6.41335 29.68 6.05336 29.4666 5.72003 29.2133L5.70669 29.2C5.53335 29.0666 5.37337 28.9333 5.2267 28.7733C5.08004 28.6133 4.93335 28.4533 4.78668 28.28C4.53335 27.9466 4.32003 27.5866 4.13336 27.2133C4.1467 27.2 4.1467 27.2 4.13336 27.2C4.13336 27.2 4.13335 27.1866 4.12002 27.1733C4.04002 26.9866 3.97334 26.7866 3.90668 26.5866C3.85334 26.4133 3.81334 26.24 3.77334 26.0666C3.70667 25.72 3.66669 25.36 3.66669 25V6.99996C3.66669 4.99996 5.00002 3.66663 7.00002 3.66663H11C13 3.66663 14.3334 4.99996 14.3334 6.99996Z" stroke="#5E3BEE" stroke-width="1.5" stroke-linecap="round" stroke-linejoin="round"/>
<path d="M30.3333 23V27C30.3333 29 29 30.3333 27 30.3333H9C9.54667 30.3333 10.1067 30.2533 10.6267 30.08C10.7733 30.0266 10.92 29.9733 11.0667 29.9066C11.5333 29.72 11.9867 29.4533 12.3867 29.1066C12.5067 29.0133 12.64 28.8933 12.76 28.7733L12.8133 28.72L21.88 19.6666H27C29 19.6666 30.3333 21 30.3333 23Z" stroke="#5E3BEE" stroke-width="1.5" stroke-linecap="round" stroke-linejoin="round"/>
<path d="M7.41335 30.0933C6.61335 29.8533 5.85337 29.4133 5.2267 28.7733C4.5867 28.1467 4.14668 27.3867 3.90668 26.5867C4.42668 28.2533 5.74668 29.5733 7.41335 30.0933Z" stroke="#5E3BEE" stroke-width="1.5" stroke-linecap="round" stroke-linejoin="round"/>
<path d="M25.4933 16.0533L21.88 19.6666L12.8133 28.72C13.7466 27.76 14.3333 26.44 14.3333 25V12.12L17.9466 8.50666C19.36 7.09332 21.2533 7.09332 22.6666 8.50666L25.4933 11.3333C26.9066 12.7466 26.9066 14.64 25.4933 16.0533Z" stroke="#5E3BEE" stroke-width="1.5" stroke-linecap="round" stroke-linejoin="round"/>
<path d="M9.00002 26.3333C9.7364 26.3333 10.3334 25.7363 10.3334 25C10.3334 24.2636 9.7364 23.6666 9.00002 23.6666C8.26364 23.6666 7.66669 24.2636 7.66669 25C7.66669 25.7363 8.26364 26.3333 9.00002 26.3333Z" stroke="#5E3BEE" stroke-width="1.5" stroke-linecap="round" stroke-linejoin="round"/>
</svg>
